<mxfile host="app.diagrams.net" modified="2023-05-10T00:04:25.802Z" agent="Mozilla/5.0 (Windows NT 10.0; Win64; x64) AppleWebKit/537.36 (KHTML, like Gecko) Chrome/113.0.0.0 Safari/537.36 Edg/113.0.1774.35" version="21.1.8" etag="pVraJyEYmm8_w6ycSWH3" type="github">
  <diagram name="第 1 页" id="xuMn_crkpTeo7nU0rwn6">
    <mxGraphModel>
      <root>
        <mxCell id="0" />
        <mxCell id="1" parent="0" />
      </root>
    </mxGraphModel>
  </diagram>
</mxfile>
